<?xml version="1.0" encoding="utf-8"?>
<!-- Generator: Adobe Illustrator 24.0.0, SVG Export Plug-In . SVG Version: 6.00 Build 0)  -->
<svg version="1.1" id="Layer_1" xmlns="http://www.w3.org/2000/svg" xmlns:xlink="http://www.w3.org/1999/xlink" x="0px" y="0px"
	 viewBox="0 0 214.46 39.11" style="enable-background:new 0 0 214.46 39.11;" xml:space="preserve">
<style type="text/css">
	.st0{fill:none;stroke:#000000;stroke-width:0.0534;}
	.st1{fill-rule:evenodd;clip-rule:evenodd;fill:#FFFFFF;}
	.st2{fill:#FFFFFF;}
</style>
<path class="st0" d="M32.32,33.3"/>
<g>
	<polygon class="st1" points="2.16,39.03 4.42,39.03 4.42,38.52 2.74,38.52 2.74,34.99 2.16,34.99 	"/>
	<path class="st1" d="M8.76,39.03h0.6l0.41-1.02h1.97l0.41,1.02h0.63l-1.7-4.04h-0.6L8.76,39.03z M11.56,37.54h-1.6l0.8-2.01
		L11.56,37.54z"/>
	<path class="st1" d="M17.48,39.03h1.07c0.82,0,1.53-0.21,1.53-1.08c0-0.57-0.39-0.93-0.93-0.97v-0.01
		c0.51-0.13,0.83-0.41,0.83-0.96c0-0.75-0.58-1.02-1.41-1.02h-1.09V39.03z M18.05,37.19h0.37c0.49,0,1.04,0.09,1.04,0.71
		c0,0.54-0.47,0.65-0.98,0.65h-0.43V37.19z M18.05,35.46h0.6c0.33,0,0.74,0.12,0.74,0.6c0,0.6-0.47,0.65-1.03,0.65h-0.32V35.46z"/>
	<polygon class="st1" points="25.21,39.03 27.46,39.03 27.46,38.52 25.79,38.52 25.79,37.19 27.31,37.19 27.31,36.68 25.79,36.68 
		25.79,35.5 27.46,35.5 27.46,34.99 25.21,34.99 	"/>
	<polygon class="st1" points="32.53,39.03 34.79,39.03 34.79,38.52 33.11,38.52 33.11,34.99 32.53,34.99 	"/>
	<path class="st1" d="M41.47,35.06c-0.28-0.1-0.59-0.15-0.86-0.15c-0.72,0-1.29,0.38-1.29,1.1c0,1.26,1.73,1.01,1.73,1.91
		c0,0.47-0.46,0.66-0.79,0.66c-0.29,0-0.64-0.12-0.83-0.2l-0.06,0.54c0.26,0.09,0.54,0.17,0.82,0.17c0.81,0,1.47-0.34,1.47-1.2
		c0-1.33-1.73-1.15-1.73-1.93c0-0.42,0.38-0.54,0.7-0.54c0.3,0,0.46,0.05,0.75,0.17L41.47,35.06z"/>
	<path class="st1" d="M54.51,39.03h0.6l0.41-1.02h1.97l0.41,1.02h0.63l-1.7-4.04h-0.6L54.51,39.03z M57.31,37.54h-1.6l0.8-2.01
		L57.31,37.54z"/>
	<polygon class="st1" points="63.26,39.03 63.83,39.03 63.83,35.71 63.84,35.71 65.66,39.03 66.4,39.03 66.4,34.99 65.82,34.99 
		65.82,38.24 65.81,38.24 64.04,34.99 63.26,34.99 	"/>
	<path class="st1" d="M71.54,39.03h1.18c1.32,0,2.14-0.7,2.14-2.06c0-1.25-0.95-1.99-2.14-1.99h-1.18V39.03z M72.11,35.5h0.67
		c0.83,0,1.47,0.56,1.47,1.5c0,1.04-0.55,1.52-1.54,1.52h-0.6V35.5z"/>
	<polygon class="st1" points="88.23,39.03 88.8,39.03 88.8,35.71 88.81,35.71 90.63,39.03 91.37,39.03 91.37,34.99 90.79,34.99 
		90.79,38.24 90.78,38.24 89.01,34.99 88.23,34.99 	"/>
	<path class="st1" d="M96.1,39.03h0.61l0.41-1.02h1.97l0.41,1.02h0.63l-1.7-4.04h-0.6L96.1,39.03z M98.9,37.54h-1.6l0.8-2.01
		L98.9,37.54z"/>
	<polygon class="st1" points="104.86,39.03 105.43,39.03 105.43,35.53 105.45,35.53 106.77,39.03 107.34,39.03 108.67,35.53 
		108.68,35.53 108.68,39.03 109.25,39.03 109.25,34.99 108.3,34.99 107.07,38.35 105.81,34.99 104.86,34.99 	"/>
	<polygon class="st1" points="114.47,39.03 116.72,39.03 116.72,38.52 115.04,38.52 115.04,37.19 116.57,37.19 116.57,36.68 
		115.04,36.68 115.04,35.5 116.72,35.5 116.72,34.99 114.47,34.99 	"/>
	<path class="st1" d="M122.33,35.5h0.49c0.36,0,0.89,0.18,0.89,0.7c0,0.53-0.45,0.71-0.81,0.71h-0.57V35.5z M121.76,39.03h0.58
		v-1.62h0.56c0.73,0,1.42-0.32,1.42-1.22c0-0.92-0.68-1.21-1.51-1.21h-1.05V39.03z"/>
	<polygon class="st1" points="129.14,39.03 131.4,39.03 131.4,38.52 129.72,38.52 129.72,34.99 129.14,34.99 	"/>
	<path class="st1" d="M135.74,39.03h0.6l0.41-1.02h1.97l0.41,1.02h0.63l-1.7-4.04h-0.6L135.74,39.03z M138.53,37.54h-1.6l0.8-2.01
		L138.53,37.54z"/>
	<polygon class="st1" points="144.86,39.03 145.44,39.03 145.44,35.5 146.69,35.5 146.69,34.99 143.62,34.99 143.62,35.5 
		144.86,35.5 	"/>
	<polygon class="st1" points="151.45,39.03 153.7,39.03 153.7,38.52 152.02,38.52 152.02,37.19 153.55,37.19 153.55,36.68 
		152.02,36.68 152.02,35.5 153.7,35.5 153.7,34.99 151.45,34.99 	"/>
	<path class="st1" d="M160.68,35.06c-0.28-0.1-0.59-0.15-0.86-0.15c-0.72,0-1.29,0.38-1.29,1.1c0,1.26,1.73,1.01,1.73,1.91
		c0,0.47-0.46,0.66-0.79,0.66c-0.29,0-0.64-0.12-0.83-0.2l-0.06,0.54c0.27,0.09,0.54,0.17,0.82,0.17c0.8,0,1.47-0.34,1.47-1.2
		c0-1.33-1.73-1.15-1.73-1.93c0-0.42,0.38-0.54,0.7-0.54c0.3,0,0.46,0.05,0.75,0.17L160.68,35.06z"/>
	<polygon class="st1" points="196.23,39.03 198.49,39.03 198.49,38.52 196.81,38.52 196.81,34.99 196.23,34.99 	"/>
	<polygon class="st1" points="203.76,39.03 204.33,39.03 204.33,35.5 205.58,35.5 205.58,34.99 202.51,34.99 202.51,35.5 
		203.76,35.5 	"/>
	<path class="st1" d="M210.28,39.03h1.18c1.32,0,2.14-0.7,2.14-2.06c0-1.25-0.95-1.99-2.14-1.99h-1.18V39.03z M210.85,35.5h0.67
		c0.83,0,1.47,0.56,1.47,1.5c0,1.04-0.55,1.52-1.54,1.52h-0.61V35.5z"/>
</g>
<g>
	<path class="st2" d="M37.62,27.84c-0.2-0.13-0.39-0.26-0.56-0.41l-0.01-0.01c-0.7-0.6-1.24-2.71-1.93-5.39l-1.22-4.68
		c-0.63-2.4-1.5-4.14-2.66-5.32c-1.2-1.21-2.74-1.83-4.59-1.83c-2.03,0-3.73,0.87-5.58,2.89c-1.41-1.94-3.15-2.89-5.31-2.89
		c-2.03,0-3.94,0.83-5.81,2.52l-0.04-0.68C9.87,11.34,9.81,10,8.46,10c-0.43,0-0.92,0.16-1.44,0.47l-4.62,2.52
		C1.18,13.64,0,14.37,0,15.59c0,1.25,0.89,1.6,1.68,1.91c0.1,0.04,0.2,0.08,0.31,0.12c0.57,0.23,0.58,0.24,0.58,1.13v7.26
		c0,0.93-0.21,1.24-0.63,1.54c-0.17,0.11-0.34,0.21-0.51,0.3c-0.6,0.33-1.36,0.75-1.36,1.96c0,1.25,0.91,2.09,2.26,2.09h7.85
		c1.24,0,2.14-0.72,2.28-1.79c0.13,1.08,1,1.79,2.24,1.79h7.64c1.35,0,2.3-0.86,2.3-2.09c0-1.21-0.75-1.63-1.36-1.96
		c-0.17-0.09-0.34-0.19-0.51-0.31c-0.54-0.36-0.7-0.72-0.7-1.53v-6.79c0-1.97,0.85-3.19,2.22-3.19c1.21,0,1.83,0.98,2.79,4.39
		c1.11,3.82,1.41,5.89,1.41,6.51c0,0.16-0.08,0.24-0.65,0.58c-0.16,0.09-0.34,0.2-0.52,0.32l-0.02,0.01
		c-0.62,0.44-1.22,0.95-1.22,1.96c0,2.09,2.2,2.09,3.14,2.09h6.62c2.7,0,3.1-1.31,3.1-2.09C38.94,28.71,38.17,28.2,37.62,27.84z
		 M14.94,26.01c0,0.9-0.23,1.23-0.67,1.54c-0.16,0.11-0.33,0.2-0.49,0.29c-0.54,0.3-1.2,0.68-1.32,1.65
		c-0.12-0.97-0.79-1.34-1.34-1.64c-0.17-0.09-0.34-0.19-0.5-0.29c-0.45-0.32-0.68-0.64-0.68-1.54v-6.79c0-1.65,1.47-3.27,2.98-3.27
		c1.75,0,2.01,2.13,2.01,3.4V26.01z"/>
	<path class="st2" d="M58.75,13.33c-2.29-1.98-5.5-3.16-8.6-3.16c-3.48,0-6.15,1.09-8.39,3.41c-2.09,2.13-3.19,4.87-3.19,7.91
		c0,6.72,4.84,10.9,12.63,10.9c3.5,0,6.46-0.94,8.56-2.71C61.88,27.9,63,25.41,63,22.47C63,18.82,61.57,15.75,58.75,13.33z
		 M52.31,27.97c-1.8,0-3.27-1.34-4.65-4.21c-0.96-1.96-1.49-4.06-1.49-5.9c0-2.28,1.01-3.69,2.64-3.69c1.34,0,3.29,1.15,4.61,3.71
		c1.12,2.21,1.74,4.43,1.74,6.27C55.16,26.51,54.07,27.97,52.31,27.97z"/>
	<path class="st2" d="M84.89,23.84c-0.82,0-1.41,0.59-2.03,1.22c-0.2,0.2-0.4,0.4-0.62,0.6c-1.58,1.37-2.88,1.93-4.48,1.93
		c-3.02,0-5.13-2.91-5.13-7.07c0-3.87,1.45-6.27,3.78-6.27c1.38,0,2.58,1.06,3.14,2.77c0.12,0.36,0.22,0.69,0.31,0.98
		c0.42,1.37,0.76,2.45,1.95,2.45c1.08,0,1.56-0.96,1.72-1.27l1.99-4.18c0.19-0.38,0.28-0.74,0.28-1.11c0-1.18-1.96-2.15-2.8-2.52
		c-1.04-0.45-3.22-1.21-6.04-1.21c-3.35,0-6.33,1.05-8.64,3.04c-2.57,2.21-4.04,5.23-4.04,8.29c0,3.17,1.15,5.89,3.34,7.86
		c2.17,1.96,5.17,3,8.67,3c3.41,0,6.27-1.13,8.26-3.25c1.35-1.4,2.01-2.55,2.01-3.52C86.55,24.59,85.83,23.84,84.89,23.84z"/>
	<path class="st2" d="M132.93,9.07c3.06,0,5.84-2.14,5.84-4.49c0-1.5-1.17-2.55-2.84-2.55c-3.11,0-6.05,2.2-6.05,4.53
		C129.87,8.08,131.07,9.07,132.93,9.07z"/>
	<path class="st2" d="M139.76,27.82c-0.16-0.1-0.33-0.19-0.49-0.31c-0.45-0.32-0.68-0.64-0.68-1.54V12.25c0-0.52,0-2.09-1.45-2.09
		c-0.43,0-0.76,0.16-1.05,0.3c-0.1,0.05-0.2,0.09-0.3,0.13l-0.01,0l-4.74,2.07c-0.59,0.26-1.2,0.56-1.61,0.99
		c0.26-0.74,0.4-1.22,0.4-1.57c0-0.73-0.45-1.96-3.44-1.96c-2.19,0-4.1,1.06-6.18,3.47v-1.64c0-0.52,0-2.09-1.45-2.09
		c-0.45,0-0.9,0.15-1.45,0.48l-4.56,2.7c-1.3,0.78-2.32,1.39-2.32,2.41c0,1.19,0.93,1.54,1.75,1.85l0.19,0.07
		c0.51,0.18,0.51,0.18,0.51,0.87v7.55c0,0.97-0.24,1.31-0.71,1.62c-0.16,0.11-0.34,0.21-0.52,0.31c-0.44,0.25-1,0.57-1.28,1.17
		c-0.24-0.48-0.63-0.71-1.02-0.93l-0.07-0.04c-0.81-0.42-1.27-1.34-1.97-2.72c-0.1-0.19-0.2-0.4-0.3-0.6l-3.96-8.05
		c0.94-0.99,1.58-1.49,2.5-1.73l0.1-0.02c1.13-0.28,2.41-0.6,2.41-2.21c0-1.92-1.95-1.92-2.59-1.92h-6.12c-2,0-2.42,1.02-2.42,1.88
		c0,1.11,0.91,1.56,1.45,1.83c0.07,0.04,0.16,0.08,0.23,0.12c-0.14,0.3-0.66,1.11-2.66,2.9V1.92C95.94,0.33,95.11,0,94.4,0
		c-0.47,0-0.93,0.16-1.43,0.49L88.1,3.47c-1.22,0.72-2.03,1.39-2.03,2.33c0,1.23,0.93,1.58,1.76,1.89l0.15,0.06
		c0.33,0.13,0.41,0.21,0.43,0.24c0.07,0.12,0.07,0.57,0.07,0.76v17.21c0,0.93-0.21,1.24-0.64,1.55c-0.15,0.11-0.32,0.21-0.48,0.31
		c-0.61,0.36-1.37,0.82-1.37,1.99c0,1.25,0.91,2.09,2.25,2.09h7.85c1.35,0,2.25-0.84,2.25-2.09c0-1.17-0.75-1.63-1.35-2
		c-0.15-0.09-0.31-0.19-0.47-0.3c-0.45-0.32-0.68-0.64-0.68-1.54v-2.65l1.76-1.62l4.27,8.53c0.49,1.03,0.88,1.66,2.1,1.66h4.68
		c0.84,0,1.49-0.44,1.77-1.13c0.37,0.69,1.14,1.13,2.13,1.13h7.93c1.35,0,2.25-0.84,2.25-2.09c0-1.17-0.76-1.62-1.37-1.99
		c-0.16-0.1-0.33-0.19-0.49-0.31c-0.43-0.3-0.63-0.61-0.63-1.54v-4.94c0-3.78,1.99-3.78,2.64-3.78c0.66,0,0.99,0.24,1.65,1.24
		c0.44,0.71,0.86,1.37,1.68,1.37c1.21,0,1.54-1.12,1.9-2.31c0.07-0.25,0.15-0.51,0.24-0.78c0.22-0.67,0.41-1.24,0.6-1.77
		c0.11,0.93,0.87,1.24,1.55,1.51c0.08,0.03,0.17,0.06,0.25,0.1l0.02,0.01c0.34,0.13,0.38,0.19,0.38,0.19
		c0.05,0.1,0.05,0.5,0.05,0.64v8.52c0,0.94-0.2,1.23-0.64,1.55c-0.15,0.11-0.32,0.21-0.48,0.31c-0.61,0.36-1.37,0.82-1.37,1.99
		c0,1.25,0.91,2.09,2.25,2.09h7.85c1.35,0,2.3-0.86,2.3-2.09C141.13,28.64,140.37,28.18,139.76,27.82z"/>
	<path class="st2" d="M165.6,27.54c-0.15-0.09-0.3-0.18-0.45-0.28c-0.56-0.39-0.63-0.6-0.63-1.71V1.92c0-1.27-0.47-1.92-1.41-1.92
		c-0.48,0-0.94,0.2-1.37,0.42l-4.48,2.32c-1.22,0.65-2.31,1.32-2.31,2.34c0,1.21,0.95,1.57,1.64,1.83c0.1,0.04,0.2,0.08,0.3,0.12
		c0.22,0.09,0.33,0.15,0.33,0.96v3.29c-1.34-0.7-2.72-1.03-4.24-1.03c-3.37,0-6.56,1.77-8.75,4.85c-1.43,2.06-2.19,4.46-2.19,6.94
		c0,2.85,0.92,5.44,2.58,7.28c1.68,1.87,4.06,2.9,6.68,2.9c2.03,0,3.92-0.67,5.86-2.09c0.12,1.3,0.53,2.26,2.11,2.26
		c1.06,0,3.65-0.32,6.09-1.04c1.45-0.4,1.61-1.43,1.61-1.85C166.97,28.35,166.21,27.9,165.6,27.54z M154.33,26.29
		c-2.71,0-4.92-3.04-4.92-6.77c0-3,1.75-5.17,4.16-5.17c1.66,0,3.86,0.73,3.86,7.07C157.44,24.46,156.28,26.29,154.33,26.29z"/>
	<path class="st2" d="M182.75,26.42l-4.98-0.46c-0.73-0.07-2.66-0.24-2.87-0.56c0,0,0-0.01,0-0.02c0-0.04,0.03-0.11,0.19-0.26
		c1.16,0.27,2.55,0.4,4.22,0.4c3.2,0,5.96-0.76,8-2.2c1.98-1.41,3.08-3.34,3.08-5.45c0-3.13-2.18-5.6-6.18-7.02
		c0.27-0.19,0.53-0.22,0.76-0.22c0.29,0,0.64,0.1,1.02,0.21c0.48,0.14,1.02,0.29,1.59,0.29c1.57,0,2.8-1.19,2.8-2.72
		c0-2.22-1.56-3.65-3.98-3.65c-2.87,0-5.06,1.84-6.52,5.46c-3.34,0.18-6.12,0.98-8.06,2.32c-2.04,1.42-3.12,3.41-3.12,5.73
		c0,2.09,0.74,3.66,2.45,5.08c-2.36,1.51-3.55,3.06-3.55,4.62c0,0.85,0.41,1.92,2.17,2.66c-1.83,1.31-2.25,2.53-2.25,3.37
		c0,1.15,0.6,2.74,3.47,3.84c2.16,0.83,5.24,1.24,9.16,1.24c3.97,0,7.02-0.52,9.07-1.55c2.2-1.11,3.31-2.79,3.31-5.01
		C192.53,28.16,188.79,26.95,182.75,26.42z M179.56,13.92c2.5,0,2.77,2.79,2.77,3.99c0,3.42-1.65,3.82-2.89,3.82
		c-1.76,0-2.89-1.47-2.89-3.74C176.54,15.48,177.7,13.92,179.56,13.92z M180.23,34.77c-5.39,0-5.97-0.9-5.97-1.29
		c0-0.4,0.23-0.85,0.71-1.38l2.7,0.3c0.68,0.08,1.32,0.14,1.91,0.2c3.04,0.32,5.24,0.55,5.24,1.18
		C184.82,34.43,183.27,34.77,180.23,34.77z"/>
	<path class="st2" d="M212.8,24.64c-0.7,0-1.38,0.45-2.41,1.13c-0.23,0.15-0.52,0.35-0.82,0.54c-1.04,0.64-2.28,0.99-3.48,0.99
		c-2.35,0-3.99-1.21-4.9-3.59l10.82-3.54c0.4-0.13,0.73-0.25,0.96-0.37l0.8-0.43l-0.07-0.9c-0.06-0.78-0.67-2.59-2.08-4.36
		c-2.14-2.68-4.82-3.93-8.43-3.93c-2.86,0-5.73,1.14-7.86,3.14c-2.24,2.11-3.38,4.75-3.38,7.85c0,3.13,1.2,5.99,3.37,8.04
		c2.18,2.06,5.23,3.2,8.59,3.2c3.28,0,6.63-1.25,8.95-3.34c1.04-0.95,1.62-1.93,1.62-2.75C214.46,25.36,213.75,24.64,212.8,24.64z
		 M199.61,17.65c0-2.01,0.97-3.31,2.47-3.31c1.85,0,3.44,2.1,3.44,3.82c0,0.1-0.23,0.26-0.52,0.35l-4.95,1.71
		C199.81,19.31,199.61,18.4,199.61,17.65z"/>
</g>
</svg>
